<?xml version="1.0" standalone="no"?>
<!DOCTYPE svg PUBLIC "-//W3C//DTD SVG 20010904//EN"
 "http://www.w3.org/TR/2001/REC-SVG-20010904/DTD/svg10.dtd">
<svg version="1.0" xmlns="http://www.w3.org/2000/svg"
 width="180.000000pt" height="180.000000pt" viewBox="0 0 180.000000 180.000000"
 preserveAspectRatio="xMidYMid meet">
<metadata>
Created by potrace 1.11, written by Peter Selinger 2001-2013
</metadata>
<g transform="translate(0.000000,180.000000) scale(0.100000,-0.100000)"
fill="#000000" stroke="none">
<path d="M0 900 l0 -900 900 0 900 0 0 900 0 900 -900 0 -900 0 0 -900z m1095
630 c110 -34 191 -84 280 -174 88 -89 139 -177 170 -296 23 -86 23 -244 0
-330 -27 -102 -25 -100 -110 -100 l-75 0 0 290 0 290 -30 0 c-23 0 -30 4 -30
20 0 16 -7 20 -30 20 -23 0 -30 4 -30 20 0 16 -7 20 -30 20 -28 0 -30 2 -30
40 0 38 -2 40 -30 40 -28 0 -30 -2 -30 -40 0 -38 -2 -40 -30 -40 -23 0 -30 -4
-30 -20 0 -16 -7 -20 -30 -20 -23 0 -30 -4 -30 -20 0 -16 -7 -20 -30 -20 l-30
0 0 -290 0 -290 -60 0 -60 0 0 195 0 195 -30 0 c-23 0 -30 4 -30 20 0 18 -7
20 -60 20 -53 0 -60 -2 -60 -20 0 -16 -7 -20 -30 -20 -23 0 -30 4 -30 20 0 18
-7 20 -60 20 -53 0 -60 -2 -60 -20 0 -16 -7 -20 -30 -20 l-30 0 0 -195 0 -195
-50 0 c-57 0 -60 3 -85 100 -23 86 -23 244 -1 330 56 214 229 399 434 465 125
40 274 42 397 5z m25 -395 l0 -35 -60 0 -60 0 0 35 0 35 60 0 60 0 0 -35z
m180 0 l0 -35 -60 0 -60 0 0 35 0 35 60 0 60 0 0 -35z m-180 -115 l0 -40 -60
0 -60 0 0 40 0 40 60 0 60 0 0 -40z m180 0 l0 -40 -60 0 -60 0 0 40 0 40 60 0
60 0 0 -40z m-720 -115 l0 -35 -60 0 -60 0 0 35 0 35 60 0 60 0 0 -35z m180 0
l0 -35 -60 0 -60 0 0 35 0 35 60 0 60 0 0 -35z m360 0 l0 -35 -60 0 -60 0 0
35 0 35 60 0 60 0 0 -35z m180 0 l0 -35 -60 0 -60 0 0 35 0 35 60 0 60 0 0
-35z m-720 -120 l0 -35 -60 0 -60 0 0 35 0 35 60 0 60 0 0 -35z m180 0 l0 -35
-60 0 -60 0 0 35 0 35 60 0 60 0 0 -35z m360 0 l0 -35 -60 0 -60 0 0 35 0 35
60 0 60 0 0 -35z m180 0 l0 -35 -60 0 -60 0 0 35 0 35 60 0 60 0 0 -35z"/>
</g>
</svg>
